<svg xmlns="http://www.w3.org/2000/svg" width="1824" height="812" viewBox="0 0 1824 812" preserveAspectRatio="xMidYMid meet">
    <g id="myGroup" transform="translate(0.000000,812.000000) scale(0.100000,-0.100000)" fill="var(--svg-fill-color, rgb(47, 71, 101))" stroke="none">
        <path d="M5545 7249 c-1084 -5 -1038 -4 -1215 -48 -150 -37 -311 -132 -432 -253 -95 -96 -157 -189 -375 -563 -397 -678 -488 -833 -524 -895 -21 -36 -35 -68 -30 -73 4 -4 2396 -8 5314 -10 4394 -1 5307 -4 5307 -15 0 -19 -348 -725 -363 -734 -6 -5 -705 -6 -1552 -2 -848 4 -1556 4 -1576 0 -34 -6 -39 -14 -220 -338 -101 -183 -201 -364 -223 -403 -21 -38 -54 -96 -72 -128 -19 -32 -34 -60 -34 -62 0 -2 -13 -26 -28 -52 -29 -49 -69 -121 -178 -322 -35 -63 -60 -119 -57 -124 3 -5 679 -8 1614 -6 885 2 1610 1 1612 -2 3 -2 -23 -53 -57 -114 -152 -269 -263 -467 -314 -560 -30 -55 -64 -112 -74 -128 l-19 -27 -2983 0 -2982 0 -124 -202 c-379 -622 -664 -1088 -719 -1175 -28 -46 -51 -87 -51 -93 0 -13 7305 -13 8390 0 855 11 1062 23 1303 76 201 44 330 112 453 240 89 92 153 184 250 360 104 189 2238 4467 2258 4526 51 154 63 413 26 563 -61 245 -184 407 -378 497 -99 46 -195 58 -497 63 -407 7 -10268 11 -11450 4z"/>
        <path d="M2533 4593 c-22 -38 -85 -140 -138 -228 -185 -302 -1619 -2651 -1898 -3109 -97 -159 -174 -293 -171 -297 5 -8 3064 -2 3121 7 30 4 71 66 755 1141 398 625 726 1141 730 1147 5 8 470 12 1600 16 l1592 5 59 105 c51 92 538 981 627 1145 18 33 36 65 41 70 4 6 12 23 18 38 l11 27 -3153 0 -3153 0 -41 -67z"/>
    </g>
</svg>
